<svg id="svg" version="1.1" xmlns="http://www.w3.org/2000/svg" style="display: block;" viewBox="0 0 1024 1024"><path d="M0 0 C337.92 0 675.84 0 1024 0 C1024 337.92 1024 675.84 1024 1024 C686.08 1024 348.16 1024 0 1024 C0 686.08 0 348.16 0 0 Z " transform="translate(0,0)" style="fill: #FCCA85;"/><path d="M0 0 C6.19205132 4.69454946 10.63942369 11.27672857 12 19 C12.53231241 25.72335928 11.28468882 32.16139666 10.0625 38.75 C9.95695801 39.33003784 9.85141602 39.91007568 9.74267578 40.50769043 C5.29628787 64.94160402 0.05986081 89.23744811 -5.046875 113.54003906 C-7.47665878 125.1759124 -9.77300431 136.83908751 -12.09747314 148.49633789 C-15.48077692 165.45921295 -18.94076618 182.40190912 -22.56689453 199.31469727 C-22.70515152 199.95971443 -22.84340851 200.6047316 -22.9858551 201.26929474 C-23.32386543 202.84620463 -23.66192742 204.42310345 -24 206 C-23.02431029 205.99308655 -23.02431029 205.99308655 -22.02890968 205.98603344 C-6.16959499 205.87539988 9.68964224 205.79276873 25.54926109 205.74093914 C33.21901726 205.71520563 40.88851514 205.6801488 48.55810547 205.62280273 C55.24637109 205.57281813 61.93444956 205.54067373 68.62289679 205.52955753 C72.16137412 205.52306399 75.69931626 205.50790588 79.23762131 205.47134972 C82.57512425 205.43715087 85.91187688 205.42699417 89.24953842 205.43446159 C90.46769808 205.43309757 91.68588553 205.42330694 92.90389252 205.40397263 C101.84074112 205.26919325 109.20959519 206.64855003 116.00337791 212.81980419 C119.44448296 216.5178294 120.4571141 219.93297133 120.75 224.9375 C120.39901272 231.24729408 118.41221055 235.50220778 114 240 C109.31872293 243.99859083 104.60651252 244.20240392 98.71875 244.08984375 C98.07131836 244.08335815 97.42388672 244.07687256 96.75683594 244.07019043 C95.17114058 244.05336802 93.58554456 244.02758975 92 244 C92.00460896 244.97677924 92.00921793 245.95355848 92.01396656 246.9599371 C92.12545322 270.83592497 92.20735903 294.7118787 92.25906086 318.58807278 C92.28473437 330.13490036 92.31967488 341.68155499 92.37719727 353.22827148 C92.42736716 363.30398041 92.45936964 373.37956394 92.47044247 383.45539433 C92.47690493 388.78000087 92.49186115 394.10424902 92.52865028 399.42873955 C92.84226209 446.70772006 85.35617694 487.24778644 51 522 C37.07060974 535.5811555 21.84205275 544.77261373 3.92871094 552.19482422 C2.23740803 552.90088966 0.55891256 553.63747351 -1.1171875 554.37890625 C-36.36582992 568.68465298 -77.99804657 565.47379404 -112.375 550.625 C-125.05954762 544.90906517 -136.25969283 537.82400236 -147 529 C-147.7734375 528.36964844 -148.546875 527.73929688 -149.34375 527.08984375 C-154.05745002 523.11039316 -158.09033538 518.76296444 -162 514 C-162.40089844 513.52208008 -162.80179687 513.04416016 -163.21484375 512.55175781 C-177.86590062 495.02048576 -188.35577137 475.49577145 -193 453 C-193.12405893 452.42004276 -193.24811786 451.84008553 -193.37593615 451.24255383 C-195.83572839 439.56352732 -196.41651067 428.35359399 -196.34057617 416.44506836 C-196.33972756 414.55095941 -196.34020961 412.65684947 -196.34190369 410.76274109 C-196.34275592 405.67704412 -196.32525692 400.59156431 -196.30418181 395.50591731 C-196.2852846 390.17018057 -196.28365438 384.83443753 -196.28010559 379.49867249 C-196.27082313 369.41980692 -196.24626137 359.34104028 -196.21605712 349.26221806 C-196.18239408 337.7771712 -196.16599732 326.29211933 -196.15097082 314.80703533 C-196.11970798 291.20463561 -196.06702226 267.60232338 -196 244 C-197.03495605 244.01812744 -198.06991211 244.03625488 -199.13623047 244.05493164 C-200.5048784 244.06959154 -201.8735311 244.08380986 -203.2421875 244.09765625 C-203.9230542 244.11074829 -204.6039209 244.12384033 -205.30541992 244.1373291 C-210.40335966 244.1760202 -214.23226046 243.72443219 -218 240 C-222.02132524 235.34372867 -224.33557735 231.31006539 -224.21484375 224.96484375 C-223.51312519 218.54730853 -220.88785666 214.07321388 -216 210 C-211.20674848 206.72655994 -207.48384635 205.87402007 -201.73553467 205.87974548 C-200.13701157 205.87768349 -200.13701157 205.87768349 -198.50619507 205.87557983 C-197.33062716 205.87911857 -196.15505953 205.88275338 -194.97949219 205.88647461 C-193.73753868 205.88675678 -192.495585 205.88659816 -191.25363159 205.8860321 C-187.88619262 205.8857453 -184.5187893 205.89162312 -181.1513586 205.89860606 C-177.6306317 205.90485908 -174.10990397 205.90544494 -170.58917236 205.90663147 C-163.92401265 205.90973903 -157.25886935 205.91794469 -150.59371686 205.92798096 C-143.00489531 205.93915993 -135.41607297 205.94465705 -127.82724524 205.94967639 C-112.21815419 205.96012777 -96.60907841 205.9777161 -81 206 C-80.90189419 205.07553023 -80.90189419 205.07553023 -80.80180645 204.1323843 C-80.71427011 203.3230296 -80.62673376 202.51367491 -80.5365448 201.67979431 C-80.40750149 200.47688704 -80.40750149 200.47688704 -80.27585125 199.24967861 C-79.94921382 196.58581818 -79.39501438 194.04299781 -78.73828125 191.44140625 C-77.25497967 185.2467579 -75.97009495 179.02516654 -74.73046875 172.77734375 C-74.52735077 171.75446762 -74.32423279 170.73159149 -74.11495972 169.67771912 C-73.69039611 167.53571124 -73.26638686 165.39359342 -72.84289551 163.25137329 C-66.96810585 133.54670139 -66.96810585 133.54670139 -63.75 118.8125 C-60.18782542 102.47841425 -57.09593007 86.05500537 -53.98179626 69.63088989 C-51.92540915 58.79283168 -49.85787679 47.97234042 -47.37841797 37.22192383 C-46.40938768 32.98845426 -45.588037 28.75470334 -44.86132812 24.47314453 C-42.88252751 12.98273068 -39.78835072 6.08474636 -30 -1 C-20.8877649 -6.48200864 -8.91247418 -5.23627166 0 0 Z " transform="translate(574,229)" style="fill: #052323;"/><path d="M0 0 C71.28 0 142.56 0 216 0 C216.0825 19.408125 216.165 38.81625 216.25 58.8125 C216.28641602 64.90436768 216.32283203 70.99623535 216.36035156 77.27270508 C216.37841797 84.80407715 216.37841797 84.80407715 216.3817749 88.34770203 C216.38545 90.78368692 216.4002276 93.21931085 216.42230225 95.65519714 C216.55097594 110.51895933 216.04892568 124.60093811 212 139 C211.70832569 140.04077666 211.70832569 140.04077666 211.41075897 141.10257912 C206.68674996 157.65010653 198.56372266 172.11539748 186 184 C184.8553125 185.175625 184.8553125 185.175625 183.6875 186.375 C182.79522668 187.25363 181.89906972 188.12832575 181 189 C180.48308594 189.51304687 179.96617187 190.02609375 179.43359375 190.5546875 C159.71727495 209.03607489 131.50059557 217.27116647 104.90283203 216.109375 C73.9028592 214.32749306 45.6335195 202.95895242 25 179 C22.10260592 175.48735681 19.51071356 171.79724172 17 168 C16.22076172 166.89011719 16.22076172 166.89011719 15.42578125 165.7578125 C6.83833505 152.73013821 3.06505344 137.2647008 1 122 C0.83161118 121.03676315 0.66322235 120.07352631 0.48973083 119.08110046 C-0.23804522 113.95202704 -0.13120654 108.81908103 -0.11352539 103.64868164 C-0.11364593 102.50793654 -0.11376646 101.36719145 -0.11389065 100.19187832 C-0.11411514 97.12384124 -0.10834602 94.05584367 -0.10128021 90.98781586 C-0.09555847 88.10218925 -0.09531564 85.21656422 -0.09460449 82.33093262 C-0.08937038 73.90811657 -0.07540913 65.48530778 -0.0625 57.0625 C-0.041875 38.231875 -0.02125 19.40125 0 0 Z " transform="translate(414,538)" style="fill: #FAF6ED;"/><path d="M0 0 C71.28 0 142.56 0 216 0 C216 10.23 216 20.46 216 31 C144.72 31 73.44 31 0 31 C0 20.77 0 10.54 0 0 Z " transform="translate(414,472)" style="fill: #F4F6F6;"/><path d="M0 0 C0.54398437 0.26683594 1.08796875 0.53367187 1.6484375 0.80859375 C7.03851469 3.88668351 10.07667152 9.23001456 12 15 C12.52937239 21.87166083 12.90987502 29.04857632 9 35 C2.52947007 42.27277043 -3.79710818 45.99645946 -13.5 46.4375 C-20.07070323 46.23728467 -24.96472651 44.10575609 -29.75 39.625 C-34.7853256 33.75045347 -37.18428078 29.03273151 -37.25 21.1875 C-37.270625 20.58357422 -37.29125 19.97964844 -37.3125 19.35742188 C-37.36689219 13.04112888 -34.79358982 8.16871804 -30.62890625 3.45703125 C-21.77028744 -4.46686519 -10.39505856 -5.2891157 0 0 Z " transform="translate(493,569)" style="fill: #052122;"/><path d="M0 0 C5.31509049 4.03377403 8.86042188 8.64238942 9.75 15.328125 C10.50868859 21.88366861 9.62813003 26.90560691 5.75 32.328125 C0.46066038 38.24682908 -5.82701601 41.34361039 -13.75 41.765625 C-20.32157306 41.49416587 -25.16249739 38.82745052 -29.5625 34.015625 C-33.7438768 28.64933488 -35.9386795 23.62254953 -35.65625 16.7265625 C-34.36234949 9.08757297 -30.46254554 3.75392416 -24.21484375 -0.61328125 C-17.10229887 -4.44528853 -6.88485907 -4.07354161 0 0 Z " transform="translate(574.25,676.671875)" style="fill: #072222;"/><path d="M0 0 C5.2160807 3.84342789 9.22106305 9.94372861 10.140625 16.35546875 C10.57247739 22.7668158 8.63893913 27.24954599 4.85546875 32.3671875 C-0.00479276 37.73483895 -5.87813742 40.4737276 -13.08203125 40.8046875 C-20.443958 40.52582664 -25.09326108 37.80287703 -30.01953125 32.4296875 C-34.93399692 26.32858548 -36.08375051 21.15438514 -35.14453125 13.3671875 C-33.32379178 7.18539539 -29.53966009 2.79367959 -24.14453125 -0.6328125 C-15.98402846 -4.72052322 -7.98918988 -4.36933738 0 0 Z " transform="translate(579.14453125,568.6328125)" style="fill: #082222;"/><path d="M0 0 C5.33870195 3.91806431 8.32131545 9.20533531 9.3046875 15.69140625 C9.89436604 21.8240631 8.56836255 26.43698514 5.3046875 31.69140625 C0.6798748 36.85372745 -4.95300374 40.7498784 -12.0078125 41.12890625 C-19.26874114 40.82382521 -24.71731008 38.1288126 -29.6328125 32.81640625 C-33.83232731 27.53784944 -35.20217673 22.68257758 -35 15.98828125 C-34.07012994 8.9784916 -30.05579155 4.4321987 -24.69921875 0.1015625 C-16.89580863 -5.3897261 -8.02189258 -4.38580109 0 0 Z " transform="translate(474.6953125,644.30859375)" style="fill: #072222;"/><path d="M0 0 C4.67240532 2.76490789 7.66047974 6.55063671 9.6875 11.5625 C10.69386772 18.04151203 10.65065344 24.19306631 6.6875 29.5625 C1.7567143 34.71741232 -2.95915675 37.48660919 -10.1875 37.9375 C-14.87991713 37.7673551 -18.60005421 36.45591136 -22.3125 33.5625 C-26.86751746 28.08857447 -29.70889446 22.94595396 -29.58984375 15.75 C-28.8229292 9.70109647 -25.59411512 5.23788566 -20.875 1.5703125 C-14.51483474 -2.53199409 -7.04573731 -2.97305678 0 0 Z " transform="translate(532.3125,626.4375)" style="fill: #092122;"/><path d="M0 0 C3.37930173 1.72385433 6.08042346 3.84053393 8.4375 6.8125 C9.71153204 11.76706903 9.72517288 16.19049333 7.375 20.8125 C5.15958175 24.21724805 2.89869585 25.70043472 -1 27 C-4.83393145 27.69235782 -7.84608072 27.39222592 -11.25 25.4375 C-15.06565104 22.54005376 -16.50279332 18.82364289 -17.31640625 14.203125 C-17.59364577 10.16079399 -16.64940881 7.42238208 -14.26171875 4.2890625 C-10.45707488 0.40196505 -5.30332561 -1.23973845 0 0 Z " transform="translate(589,629)" style="fill: #0D2221;"/><path d="M0 0 C3.37867819 2.17737039 5.74721377 4.12775165 7 8 C7.58717578 12.501681 6.8491553 15.13323449 4.19921875 18.67578125 C1.49014619 21.66723271 -0.98095638 22.84822755 -4.9375 23.4375 C-9.25615656 22.82054906 -12.33322165 20.97188354 -15.15234375 17.63671875 C-16.86016699 14.33912457 -16.39954391 10.60223711 -16 7 C-14.60999172 3.44775661 -13.4011776 2.27353018 -10.25 0.125 C-6.38613672 -1.21249113 -3.85011489 -1.33134814 0 0 Z " transform="translate(514,698)" style="fill: #0A2828;"/></svg>
