<svg id="svg" version="1.1" width="1024" height="1024" viewBox="0 0 1024 1024" xmlns="http://www.w3.org/2000/svg"><path d="M492.000 200.895 C 483.385 203.248,482.661 203.567,381.000 249.726 C 365.325 256.844,347.100 265.096,340.500 268.064 C 330.007 272.783,327.606 274.343,321.381 280.481 C 313.927 287.831,310.267 293.835,307.555 303.162 C 306.131 308.062,305.970 315.387,306.232 363.619 C 306.565 425.025,306.288 422.472,313.992 435.246 L 318.051 441.975 314.591 447.004 C 312.688 449.771,310.089 454.614,308.815 457.767 C 306.523 463.444,306.500 463.910,306.500 505.500 C 306.500 547.150,306.519 547.548,308.827 553.264 C 310.107 556.434,312.695 561.317,314.577 564.115 C 316.460 566.912,318.000 569.591,318.000 570.067 C 318.000 570.543,316.184 573.742,313.965 577.175 C 311.746 580.608,309.030 586.382,307.929 590.006 C 306.004 596.344,305.939 598.997,306.214 659.548 L 306.500 722.500 309.088 729.146 C 312.137 736.975,319.323 747.409,325.033 752.296 C 330.503 756.978,337.290 760.481,358.000 769.309 C 379.057 778.286,406.588 790.283,437.000 803.736 C 449.375 809.210,466.334 816.698,474.686 820.376 C 494.708 829.193,503.623 831.447,515.492 830.692 C 520.447 830.376,526.975 829.366,530.000 828.446 C 534.844 826.973,564.915 813.818,603.000 796.510 C 617.564 789.891,662.019 770.163,676.462 763.910 C 694.502 756.099,704.410 747.360,710.939 733.500 C 716.481 721.735,716.500 721.473,716.500 656.500 C 716.500 597.341,716.469 596.401,714.285 589.458 C 713.066 585.586,710.203 579.529,707.921 576.000 C 704.644 570.929,704.006 569.259,704.881 568.041 C 708.539 562.951,712.302 555.656,714.189 550.000 C 716.201 543.967,716.387 541.079,716.768 509.831 C 717.297 466.538,716.358 460.269,707.265 446.406 L 703.925 441.313 707.385 436.171 C 716.499 422.628,717.245 416.233,716.745 356.000 C 716.405 315.107,716.089 306.658,714.730 302.131 C 710.278 287.301,701.624 277.085,687.294 269.741 C 682.457 267.263,663.425 258.595,645.000 250.480 C 626.575 242.365,600.475 230.796,587.000 224.771 C 546.776 206.787,535.807 202.162,529.540 200.541 C 521.114 198.363,500.565 198.556,492.000 200.895 M530.000 226.697 C 534.125 228.386,539.975 230.890,543.000 232.261 C 546.025 233.631,557.950 238.904,569.500 243.978 C 581.050 249.052,592.975 254.325,596.000 255.696 C 603.866 259.261,631.109 271.179,647.500 278.225 C 655.200 281.536,662.703 285.095,664.174 286.136 C 667.682 288.618,668.714 293.262,666.505 296.632 C 664.705 299.379,663.641 299.907,630.500 314.507 C 607.841 324.488,580.849 336.609,552.000 349.757 C 513.262 367.411,514.740 367.481,465.962 345.702 C 432.342 330.691,388.826 311.705,369.229 303.499 C 362.948 300.869,357.304 297.844,356.479 296.667 C 354.671 294.086,354.581 290.953,356.250 288.678 C 356.938 287.741,375.500 278.930,397.500 269.099 C 419.500 259.269,449.200 245.945,463.500 239.491 C 500.255 222.902,500.385 222.859,512.500 223.279 C 520.874 223.569,523.720 224.125,530.000 226.697 M390.500 338.500 C 415.250 349.328,442.925 361.461,452.000 365.462 C 461.075 369.463,473.000 374.668,478.500 377.029 C 486.327 380.388,489.607 382.440,493.594 386.477 C 502.058 395.047,502.000 394.650,501.998 444.428 C 501.997 492.730,501.988 492.793,494.966 496.229 C 490.391 498.468,487.883 497.794,469.000 489.252 C 461.025 485.644,446.625 479.216,437.000 474.966 C 408.668 462.457,352.974 437.496,346.751 434.518 C 340.264 431.414,335.809 426.859,332.651 420.103 C 330.550 415.608,330.500 414.455,330.500 370.824 C 330.500 327.027,330.541 326.092,332.596 323.324 C 335.389 319.562,338.845 317.834,342.500 318.372 C 344.150 318.615,365.750 327.673,390.500 338.500 M687.463 321.372 C 688.768 322.677,690.320 325.490,690.912 327.622 C 692.571 333.597,692.340 407.924,690.640 415.147 C 689.032 421.978,684.976 429.174,681.246 431.812 C 679.736 432.880,664.775 440.068,648.000 447.785 C 614.080 463.390,566.832 485.269,551.500 492.471 C 540.568 497.607,536.604 498.281,532.636 495.681 C 526.342 491.557,526.500 492.858,526.500 445.043 C 526.500 396.746,526.683 395.067,532.710 388.026 C 536.585 383.499,539.814 381.834,575.500 365.970 C 602.842 353.815,640.129 337.028,663.000 326.577 C 672.075 322.430,680.758 319.028,682.295 319.018 C 683.923 319.008,686.082 319.991,687.463 321.372 M367.012 371.753 C 361.834 376.931,360.936 382.285,364.157 388.778 C 365.959 392.410,367.576 394.034,371.159 395.812 C 387.694 404.018,400.317 380.705,385.001 370.250 C 382.572 368.593,380.263 368.000,376.234 368.000 C 371.246 368.000,370.434 368.331,367.012 371.753 M459.407 401.572 C 455.516 403.491,452.000 409.629,452.000 414.500 C 452.000 423.365,460.584 430.922,469.033 429.494 C 473.793 428.690,478.241 425.246,479.998 421.004 C 481.633 417.057,480.766 409.517,478.289 406.136 C 474.181 400.528,465.684 398.475,459.407 401.572 M405.626 403.517 C 403.443 405.700,403.575 410.247,405.956 414.914 C 411.403 425.591,424.908 429.246,432.150 422.003 C 435.719 418.435,435.997 413.812,432.777 411.557 C 429.795 409.468,429.468 409.536,425.843 413.000 C 420.505 418.101,416.870 416.543,414.082 407.961 C 412.614 403.442,411.872 402.447,409.780 402.196 C 408.389 402.028,406.520 402.623,405.626 403.517 M360.662 468.417 C 389.388 480.841,445.856 506.018,473.991 518.946 C 490.366 526.471,495.332 530.106,499.335 537.500 C 501.420 541.352,501.512 542.813,501.821 577.000 C 502.028 599.914,501.768 613.762,501.088 616.060 C 499.724 620.667,496.183 623.934,491.780 624.648 C 487.517 625.340,484.021 623.933,438.000 603.010 C 394.466 583.218,364.834 569.860,353.000 564.693 C 342.266 560.006,336.879 555.380,332.976 547.500 C 330.508 542.516,330.499 542.392,330.211 508.500 C 329.958 478.814,330.131 473.950,331.576 470.165 C 333.468 465.207,337.812 462.009,342.662 462.004 C 344.401 462.002,352.501 464.888,360.662 468.417 M683.649 463.638 C 685.773 464.646,687.946 466.856,689.300 469.388 C 691.445 473.397,691.500 474.367,691.500 508.000 C 691.500 541.800,691.454 542.600,689.220 547.445 C 684.270 558.181,685.577 557.306,649.500 574.024 C 638.500 579.121,612.625 591.168,592.000 600.795 C 536.870 626.526,539.479 625.460,534.948 624.102 C 532.285 623.305,530.441 621.839,528.820 619.231 C 526.501 615.501,526.500 615.491,526.592 579.500 C 526.682 544.620,526.754 543.341,528.904 538.393 C 532.986 528.998,534.982 527.774,580.718 506.599 C 603.938 495.849,624.413 486.422,626.218 485.650 C 628.023 484.879,638.725 479.859,650.000 474.496 C 678.627 460.879,678.156 461.031,683.649 463.638 M664.400 495.400 C 658.014 501.786,660.783 510.000,669.320 510.000 C 672.547 510.000,673.876 509.351,676.632 506.429 C 682.872 499.812,680.311 492.000,671.900 492.000 C 668.571 492.000,667.161 492.639,664.400 495.400 M561.315 572.007 C 554.239 574.858,556.304 587.000,563.865 587.000 C 568.493 587.000,572.000 583.551,572.000 579.000 C 572.000 576.027,571.398 574.671,569.365 573.073 C 566.539 570.850,564.769 570.615,561.315 572.007 M381.500 605.053 C 399.650 613.179,423.050 623.708,433.500 628.449 C 443.950 633.190,460.673 640.706,470.662 645.150 C 480.651 649.594,490.495 654.608,492.538 656.292 C 494.661 658.042,497.483 661.955,499.125 665.427 L 501.998 671.500 501.993 731.000 C 501.987 788.131,501.910 790.617,500.054 793.433 C 497.768 796.899,494.462 798.917,491.000 798.960 C 488.623 798.989,477.070 794.127,421.000 769.504 C 407.525 763.587,389.075 755.494,380.000 751.519 C 344.428 735.941,341.675 734.609,338.510 731.444 C 336.735 729.669,334.207 726.030,332.892 723.358 L 330.500 718.500 330.206 661.000 C 330.044 629.375,330.175 602.051,330.496 600.279 C 331.736 593.440,338.637 588.605,345.500 589.769 C 347.150 590.048,363.350 596.926,381.500 605.053 M685.385 592.088 C 691.719 597.070,691.500 594.678,691.500 659.000 L 691.500 717.500 689.201 722.488 C 684.895 731.830,685.588 731.402,645.500 749.479 C 631.200 755.928,610.275 765.494,599.000 770.738 C 587.725 775.982,576.925 780.937,575.000 781.748 C 573.075 782.560,564.424 786.548,555.776 790.612 C 546.209 795.107,538.765 798.000,536.766 798.000 C 532.578 798.000,528.450 794.283,527.054 789.254 C 525.753 784.571,525.668 689.491,526.952 676.215 C 527.900 666.417,530.163 660.972,535.266 656.207 C 537.377 654.235,566.570 640.179,599.000 625.520 C 604.225 623.158,621.325 615.255,637.000 607.959 C 680.014 587.936,680.080 587.915,685.385 592.088 M348.174 633.314 C 345.076 636.612,345.209 642.855,348.452 646.354 C 353.886 652.217,364.000 648.388,364.000 640.469 C 364.000 632.505,353.426 627.725,348.174 633.314 " stroke="none" fill="#f1c8b1" fill-rule="evenodd"/></svg>
